<svg id="Capa_1" enable-background="new 0 0 512 512" height="512" viewBox="0 0 512 512" width="512" xmlns="http://www.w3.org/2000/svg" fill="white"><g><g><path d="m147.484 159.024v32.325c0 4.142 3.358 7.5 7.5 7.5h202.033c4.143 0 7.5-3.358 7.5-7.5v-32.325c0-4.142-3.357-7.5-7.5-7.5h-202.033c-4.142 0-7.5 3.358-7.5 7.5zm15 7.5h187.033v17.325h-187.033z"/><path d="m441.87 0h-371.74c-4.142 0-7.5 3.358-7.5 7.5v102.423c0 4.142 3.358 7.5 7.5 7.5s7.5-3.358 7.5-7.5v-94.923h356.74v374.554c0 4.142 3.357 7.5 7.5 7.5s7.5-3.358 7.5-7.5v-382.054c0-4.142-3.357-7.5-7.5-7.5z"/><path d="m441.87 417.143c-4.143 0-7.5 3.358-7.5 7.5v72.357h-356.74v-352.071c0-4.142-3.358-7.5-7.5-7.5s-7.5 3.358-7.5 7.5v359.571c0 4.142 3.358 7.5 7.5 7.5h371.74c4.143 0 7.5-3.358 7.5-7.5v-79.857c0-4.142-3.357-7.5-7.5-7.5z"/><path d="m214.583 53.386c6.595 0 12.955 1.942 18.393 5.615 3.432 2.32 8.095 1.417 10.413-2.016 2.319-3.432 1.417-8.094-2.016-10.413-7.927-5.356-17.19-8.187-26.79-8.187-26.416 0-47.907 21.491-47.907 47.906 0 26.416 21.491 47.907 47.907 47.907 10.482 0 19.875-3.431 27.166-9.923 1.429-1.274 2.787-2.675 4.036-4.164 2.662-3.174 2.247-7.904-.927-10.566-3.174-2.661-7.904-2.247-10.566.927-.784.935-1.633 1.811-2.521 2.602-4.563 4.063-10.346 6.124-17.188 6.124-18.145 0-32.907-14.762-32.907-32.907.001-18.143 14.762-32.905 32.907-32.905z"/><path d="m300.501 134.199h.064c3.965-.027 7.486-2.568 8.779-6.372l26.387-79.428c1.307-3.931-.822-8.176-4.753-9.482-3.929-1.307-8.176.822-9.481 4.753l-21.114 63.556-22.146-63.799c-1.357-3.913-5.635-5.984-9.544-4.626-3.913 1.358-5.984 5.632-4.626 9.545l27.647 79.652c1.322 3.716 4.847 6.201 8.787 6.201z"/><path d="m389.342 230.317h-189.911c-4.142 0-7.5 3.358-7.5 7.5s3.358 7.5 7.5 7.5h189.911c4.143 0 7.5-3.358 7.5-7.5s-3.358-7.5-7.5-7.5z"/><path d="m115.159 237.817c0 4.142 3.358 7.5 7.5 7.5h40.406c4.142 0 7.5-3.358 7.5-7.5s-3.358-7.5-7.5-7.5h-40.406c-4.142 0-7.5 3.358-7.5 7.5z"/><path d="m389.342 266.683h-189.911c-4.142 0-7.5 3.358-7.5 7.5s3.358 7.5 7.5 7.5h189.911c4.143 0 7.5-3.358 7.5-7.5s-3.358-7.5-7.5-7.5z"/><path d="m122.659 281.683h40.406c4.142 0 7.5-3.358 7.5-7.5s-3.358-7.5-7.5-7.5h-40.406c-4.142 0-7.5 3.358-7.5 7.5s3.358 7.5 7.5 7.5z"/><path d="m389.342 303.049h-189.911c-4.142 0-7.5 3.358-7.5 7.5s3.358 7.5 7.5 7.5h189.911c4.143 0 7.5-3.358 7.5-7.5s-3.358-7.5-7.5-7.5z"/><path d="m122.659 318.049h40.406c4.142 0 7.5-3.358 7.5-7.5s-3.358-7.5-7.5-7.5h-40.406c-4.142 0-7.5 3.358-7.5 7.5s3.358 7.5 7.5 7.5z"/><path d="m389.342 339.415h-189.911c-4.142 0-7.5 3.358-7.5 7.5s3.358 7.5 7.5 7.5h189.911c4.143 0 7.5-3.358 7.5-7.5s-3.358-7.5-7.5-7.5z"/><path d="m122.659 354.415h40.406c4.142 0 7.5-3.358 7.5-7.5s-3.358-7.5-7.5-7.5h-40.406c-4.142 0-7.5 3.358-7.5 7.5s3.358 7.5 7.5 7.5z"/><path d="m389.342 375.78h-189.911c-4.142 0-7.5 3.358-7.5 7.5s3.358 7.5 7.5 7.5h189.911c4.143 0 7.5-3.358 7.5-7.5s-3.358-7.5-7.5-7.5z"/><path d="m122.659 390.78h40.406c4.142 0 7.5-3.358 7.5-7.5s-3.358-7.5-7.5-7.5h-40.406c-4.142 0-7.5 3.358-7.5 7.5s3.358 7.5 7.5 7.5z"/><path d="m389.342 432.35h-80.813c-4.143 0-7.5 3.358-7.5 7.5s3.357 7.5 7.5 7.5h80.813c4.143 0 7.5-3.358 7.5-7.5s-3.358-7.5-7.5-7.5z"/></g></g></svg>
