<?xml version="1.0" encoding="UTF-8"?>
<svg width="30px" height="30px" viewBox="0 0 30 30" version="1.1" xmlns="http://www.w3.org/2000/svg" xmlns:xlink="http://www.w3.org/1999/xlink">
    <title>CV</title>
    <g id="Pages" stroke="none" stroke-width="1" fill="none" fill-rule="evenodd">
        <g id="Home" transform="translate(-270.000000, -490.000000)" fill="#3B44C6" stroke="#3B44C6" stroke-width="2">
            <path d="M297,491 C297.552285,491 298.052285,491.223858 298.414214,491.585786 C298.776142,491.947715 299,492.447715 299,493 L299,493 L299,517 C299,517.552285 298.776142,518.052285 298.414214,518.414214 C298.052285,518.776142 297.552285,519 297,519 L297,519 L273,519 C272.447715,519 271.947715,518.776142 271.585786,518.414214 C271.223858,518.052285 271,517.552285 271,517 L271,517 L271,493 C271,492.447715 271.223858,491.947715 271.585786,491.585786 C271.947715,491.223858 272.447715,491 273,491 L273,491 Z M294,512.5 L275.393967,512.506745 C274.866323,512.550193 274.396226,512.797707 274.06411,513.171138 C273.749866,513.524474 273.558824,513.989906 273.558824,514.5 C273.558824,515.033659 273.764775,515.518646 274.130504,515.884375 C274.459291,516.213162 274.926717,516.451978 275.513095,516.500017 L294.164857,516.493255 C294.692501,516.449807 295.162598,516.202293 295.494714,515.828862 C295.808957,515.475526 296,515.010094 296,514.5 C296,513.947715 295.776142,513.447715 295.414214,513.085786 C295.052285,512.723858 294.552285,512.5 294,512.5 Z M294,508.5 L275.393967,508.506745 C274.866323,508.550193 274.396226,508.797707 274.06411,509.171138 C273.749866,509.524474 273.558824,509.989906 273.558824,510.5 C273.558824,511.033659 273.764775,511.518646 274.130504,511.884375 C274.459291,512.213162 274.926717,512.451978 275.513095,512.500017 L294.164857,512.493255 C294.692501,512.449807 295.162598,512.202293 295.494714,511.828862 C295.808957,511.475526 296,511.010094 296,510.5 C296,509.947715 295.776142,509.447715 295.414214,509.085786 C295.052285,508.723858 294.552285,508.5 294,508.5 Z M282,493.25 C280.688324,493.25 279.500824,493.781662 278.641243,494.641243 C277.781662,495.500824 277.25,496.688324 277.25,498 C277.25,498.798002 277.446782,499.550027 277.794591,500.210107 C276.25259,501.053528 275.091194,502.443373 274.361829,504.384455 C274.152452,504.941678 274.242093,505.515344 274.55485,505.966971 C274.83498,506.371483 275.307954,506.692319 275.94858,506.750027 L288.150705,506.743642 C288.754995,506.691765 289.251555,506.34207 289.523755,505.860678 C289.779582,505.408241 289.838656,504.841698 289.605709,504.304156 C288.808106,502.463631 287.646451,501.127497 286.162539,500.290502 C286.536883,499.611171 286.75,498.830471 286.75,498 C286.75,496.688324 286.218338,495.500824 285.358757,494.641243 C284.499176,493.781662 283.311676,493.25 282,493.25 Z" id="CV"></path>
        </g>
    </g>
</svg>