<?xml version="1.0" encoding="UTF-8"?>
<svg width="38px" height="30px" viewBox="0 0 38 30" version="1.1" xmlns="http://www.w3.org/2000/svg" xmlns:xlink="http://www.w3.org/1999/xlink">
    <title>Email</title>
    <g id="Pages" stroke="none" stroke-width="1" fill="none" fill-rule="evenodd">
        <g id="Home" transform="translate(-330.000000, -490.000000)" fill="#3B44C6" stroke="#3B44C6" stroke-width="2">
            <path d="M365,491 C365.552285,491 366.052285,491.223858 366.414214,491.585786 C366.776142,491.947715 367,492.447715 367,493 L367,493 L367.001053,516.200343 C366.933245,515.929152 366.79295,515.639092 366.537264,515.317126 L356.489794,504.719141 L365.621886,495.256339 C365.95355,494.845822 366.099223,494.33622 366.059169,493.839019 C366.021436,493.370629 365.819594,492.913445 365.454972,492.56133 C365.072184,492.191671 364.582122,492.002721 364.064453,492.011754 C363.603128,492.019803 363.10796,492.187697 362.661901,492.574626 L351.695027,503.893226 C350.671069,504.764521 349.753869,505.264507 348.952226,505.2673 C348.184511,505.269958 347.385552,504.733701 346.329321,503.651701 L335.347299,492.477655 C334.945754,492.135232 334.44023,491.976081 333.942166,492.002902 C333.472938,492.02817 333.01055,492.217787 332.648866,492.57292 C332.287181,492.928052 332.089144,493.386897 332.055303,493.855584 C332.022503,494.309855 332.113722,494.789019 332.589769,495.367371 L341.665848,504.610563 L331.432179,515.416846 C331.104366,515.830382 330.963418,516.341262 331.008043,516.838032 C331.050087,517.306054 331.25613,517.761361 331.623978,518.110104 C331.991826,518.458848 332.457464,518.640339 332.927062,518.657386 C333.382213,518.673908 333.857803,518.565602 334.418744,518.06917 L344.499948,507.435874 C345.95184,508.665744 347.451914,509.272519 348.966099,509.267303 C350.450962,509.262105 351.997864,508.677692 353.598157,507.483913 L363.601835,518.034755 C363.981786,518.435519 364.488245,518.644353 364.999908,518.657994 C365.511571,518.671634 366.028437,518.490082 366.429231,518.110104 C366.718406,517.835947 366.907586,517.495935 366.995706,517.13566 C366.962163,517.633764 366.746313,518.082114 366.414214,518.414214 C366.052285,518.776142 365.552285,519 365,519 L365,519 L333,519 C332.447715,519 331.947715,518.776142 331.585786,518.414214 C331.223858,518.052285 331,517.552285 331,517 L331,517 L331,493 C331,492.447715 331.223858,491.947715 331.585786,491.585786 C331.947715,491.223858 332.447715,491 333,491 L333,491 Z" id="Email"></path>
        </g>
    </g>
</svg>