<?xml version="1.0" encoding="UTF-8"?>
<svg width="30px" height="31px" viewBox="0 0 30 31" version="1.1" xmlns="http://www.w3.org/2000/svg" xmlns:xlink="http://www.w3.org/1999/xlink">
    <title>source</title>
    <defs>
        <polygon id="path-1" points="0 0.051322314 29.9442149 0.051322314 29.9442149 29.2561983 0 29.2561983"></polygon>
    </defs>
    <g id="Navigation" stroke="none" stroke-width="1" fill="none" fill-rule="evenodd">
        <g id="Projects-listing" transform="translate(-735.000000, -408.000000)">
            <g id="Content" transform="translate(735.000000, 187.000000)">
                <g id="Links" transform="translate(0.000000, 221.000000)">
                    <g id="Source">
                        <g id="source">
                            <g id="Group-3" transform="translate(0.000000, 0.196612)">
                                <mask id="mask-2" fill="white">
                                    <use xlink:href="#path-1"></use>
                                </mask>
                                <g id="Clip-2"></g>
                                <path d="M14.972157,0.0512231405 C6.70430579,0.0512231405 -7.43801653e-05,6.7541157 -7.43801653e-05,15.0234545 C-7.43801653e-05,21.6385785 4.28992562,27.2508099 10.2388512,29.230562 C10.9871157,29.369157 11.2618264,28.9055207 11.2618264,28.510314 C11.2618264,28.1532893 11.2479421,26.9736198 11.2414959,25.7227934 C7.07620661,26.6284959 6.19728099,23.9562645 6.19728099,23.9562645 C5.51620661,22.225686 4.5348843,21.7655207 4.5348843,21.7655207 C3.17645455,20.8362645 4.63728099,20.8553554 4.63728099,20.8553554 C6.14075207,20.9607273 6.93240496,22.3982479 6.93240496,22.3982479 C8.26777686,24.6871736 10.4349669,24.025438 11.2893471,23.642876 C11.4237273,22.6751901 11.8117438,22.0144463 12.2399256,21.6408099 C8.91438843,21.2622149 5.41852066,19.9784132 5.41852066,14.2414711 C5.41852066,12.606843 6.00339669,11.2709752 6.96116529,10.2224628 C6.80571074,9.84535537 6.2932314,8.32254545 7.10620661,6.2602314 C7.10620661,6.2602314 8.36372727,5.85808264 11.2246364,7.79519008 C12.4189339,7.46345455 13.6997603,7.29709091 14.972157,7.2911405 C16.2445537,7.29709091 17.5263719,7.46345455 18.7229008,7.79519008 C21.5805868,5.85808264 22.836124,6.2602314 22.836124,6.2602314 C23.6510826,8.32254545 23.1386033,9.84535537 22.9831488,10.2224628 C23.9431488,11.2709752 24.5238099,12.606843 24.5238099,14.2414711 C24.5238099,19.9920496 21.0212479,21.2582479 17.687281,21.6289091 C18.2243058,22.0935372 18.7028182,23.0046942 18.7028182,24.4013058 C18.7028182,26.4046116 18.6857107,28.0169256 18.6857107,28.510314 C18.6857107,28.9087438 18.9549669,29.3756033 19.7138926,29.2285785 C25.659595,27.246595 29.9443884,21.6363471 29.9443884,15.0234545 C29.9443884,6.7541157 23.241,0.0512231405 14.972157,0.0512231405" id="Fill-1" fill="#3B44C6" mask="url(#mask-2)"></path>
                            </g>
                            <path d="M5.6707438,21.744595 C5.6377686,21.8192231 5.5207438,21.8415372 5.41413223,21.7904628 C5.30528926,21.7413719 5.24454545,21.6399669 5.27975207,21.5653388 C5.31198347,21.4889752 5.42900826,21.4676529 5.53760331,21.5187273 C5.64619835,21.5675702 5.70818182,21.6699669 5.6707438,21.744595" id="Fill-4" fill="#161514"></path>
                            <path d="M6.27726446,22.4210826 C6.2058595,22.487281 6.06602479,22.4565372 5.97156198,22.3519091 C5.87338017,22.2475289 5.85528099,22.1076942 5.92767769,22.0407521 C6.00131405,21.9745537 6.13668595,22.0055455 6.23461983,22.1099256 C6.33280165,22.2155455 6.35189256,22.3538926 6.27726446,22.4210826" id="Fill-6" fill="#161514"></path>
                            <path d="M6.86757025,23.2832727 C6.77583471,23.3472397 6.62558678,23.2874876 6.5328595,23.1540992 C6.44112397,23.0209587 6.44112397,22.8612893 6.53509091,22.7973223 C6.62781818,22.7333554 6.77583471,22.791124 6.86980165,22.9230248 C6.96128926,23.0583967 6.96128926,23.2180661 6.86757025,23.2832727" id="Fill-8" fill="#161514"></path>
                            <path d="M7.6762562,24.1164298 C7.59419008,24.2069256 7.41939669,24.1826281 7.29146281,24.059157 C7.16055372,23.9384132 7.12410744,23.7670909 7.20617355,23.676595 C7.28947934,23.5858512 7.46526446,23.6113884 7.59419008,23.7338678 C7.72410744,23.8543636 7.76377686,24.0269256 7.6762562,24.1164298" id="Fill-10" fill="#161514"></path>
                            <path d="M8.79195868,24.6001736 C8.75576033,24.7174463 8.58741322,24.7705041 8.41782645,24.7206694 C8.2484876,24.6693471 8.13766116,24.5322397 8.17187603,24.4137273 C8.20708264,24.2954628 8.37617355,24.2401736 8.547,24.2934793 C8.71609091,24.3445537 8.82716529,24.4809174 8.79195868,24.6001736" id="Fill-12" fill="#161514"></path>
                            <path d="M10.0173471,24.6897769 C10.021562,24.8132479 9.87776033,24.9156446 9.6997438,24.917876 C9.52073554,24.9220909 9.37569421,24.8219256 9.37371074,24.700438 C9.37371074,24.5757273 9.51453719,24.4745702 9.69329752,24.4713471 C9.87131405,24.467876 10.0173471,24.5672975 10.0173471,24.6897769" id="Fill-14" fill="#161514"></path>
                            <path d="M11.1574959,24.495843 C11.1788182,24.6160909 11.0550992,24.7398099 10.8783223,24.7727851 C10.7045207,24.8047686 10.5436116,24.7301405 10.5215455,24.6108843 C10.4999752,24.4874132 10.6256777,24.3636942 10.7994793,24.3317107 C10.9765041,24.3009669 11.1349339,24.3733636 11.1574959,24.495843" id="Fill-16" fill="#161514"></path>
                        </g>
                    </g>
                </g>
            </g>
        </g>
    </g>
</svg>